<svg width="26" height="19" viewBox="0 0 26 19" fill="none" xmlns="http://www.w3.org/2000/svg">
<path d="M3.78334 18.1391C2.70337 18.1391 1.86693 17.7635 1.27401 17.0122C0.681085 16.2601 0.458739 15.3441 0.606969 14.2642L1.94104 4.73565C2.13163 3.46518 2.69829 2.41705 3.64104 1.59125C4.58294 0.765441 5.68916 0.352539 6.95971 0.352539H19.5381C20.8087 0.352539 21.9149 0.765441 22.8568 1.59125C23.7996 2.41705 24.3662 3.46518 24.5568 4.73565L25.8909 14.2642C26.0391 15.3441 25.8168 16.2601 25.2238 17.0122C24.6309 17.7635 23.7945 18.1391 22.7145 18.1391C22.2698 18.1391 21.8569 18.0595 21.4757 17.9002C21.0946 17.7419 20.7452 17.5039 20.4275 17.1862L17.5688 14.3277H8.92906L6.07033 17.1862C5.75269 17.5039 5.40329 17.7419 5.02212 17.9002C4.64096 18.0595 4.22803 18.1391 3.78334 18.1391ZM19.6017 10.5163C19.9617 10.5163 20.2632 10.3943 20.5063 10.1504C20.7502 9.9073 20.8722 9.60578 20.8722 9.24581C20.8722 8.88585 20.7502 8.5839 20.5063 8.33997C20.2632 8.09689 19.9617 7.97535 19.6017 7.97535C19.2417 7.97535 18.9401 8.09689 18.697 8.33997C18.4531 8.5839 18.3311 8.88585 18.3311 9.24581C18.3311 9.60578 18.4531 9.9073 18.697 10.1504C18.9401 10.3943 19.2417 10.5163 19.6017 10.5163ZM17.0606 6.70488C17.4206 6.70488 17.7225 6.58291 17.9665 6.33898C18.2096 6.0959 18.3311 5.79438 18.3311 5.43441C18.3311 5.07444 18.2096 4.7725 17.9665 4.52857C17.7225 4.28548 17.4206 4.16394 17.0606 4.16394C16.7006 4.16394 16.399 4.28548 16.1559 4.52857C15.912 4.7725 15.79 5.07444 15.79 5.43441C15.79 5.79438 15.912 6.0959 16.1559 6.33898C16.399 6.58291 16.7006 6.70488 17.0606 6.70488ZM7.84909 10.5163H9.75492V8.29296H11.9784V6.38726H9.75492V4.16394H7.84909V6.38726H5.62563V8.29296H7.84909V10.5163Z" fill="white"/>
</svg>
